<svg xmlns="http://www.w3.org/2000/svg" viewBox="0 0 2000 2000">
  <defs>
    <linearGradient id="grad" x1="0%" y1="0%" x2="100%" y2="100%">
      <stop offset="0%" style="stop-color:#50AF95;stop-opacity:1" />
      <stop offset="100%" style="stop-color:#53AE94;stop-opacity:1" />
    </linearGradient>
  </defs>
  <path fill="url(#grad)" d="M1000 0L1816.67 333.33L2000 1000L1816.67 1666.67L1000 2000L183.33 1666.67L0 1000L183.33 333.33L1000 0z"/>
  <path fill="white" d="M1179.5 755h-359v-200h-200v200h-359v145h359v100c0 125 0 190 15 250 15 60 50 110 95 150 45 40 100 70 165 85 65 15 140 15 210 15 70 0 145 0 210-15 65-15 120-45 165-85 45-40 80-90 95-150 15-60 15-125 15-250v-100h359v-145zm-359 245c0 110 0 165-10 210-10 45-30 85-60 115-30 30-70 50-115 60-45 10-100 10-155 10-55 0-110 0-155-10-45-10-85-30-115-60-30-30-50-70-60-115-10-45-10-100-10-210v-100h680v100z"/>
  <ellipse fill="white" cx="1000" cy="1000" rx="320" ry="60"/>
</svg>
